<?xml version="1.0" encoding="UTF-8"?>
<svg version="1.1" xmlns="http://www.w3.org/2000/svg" width="874" height="200">
<path d="M0 0 C2.65527344 1.25244141 2.65527344 1.25244141 5.359375 2.8515625 C6.37902344 3.44775391 7.39867187 4.04394531 8.44921875 4.65820312 C9.53847656 5.30724609 10.62773437 5.95628906 11.75 6.625 C12.90697352 7.30502178 14.06453713 7.98404047 15.22265625 8.66210938 C17.62665148 10.07067324 20.02805773 11.48350641 22.42773438 12.89941406 C27.92834865 16.14016969 33.46602616 19.31667719 39 22.5 C41.13298652 23.73016706 43.26579782 24.960638 45.3984375 26.19140625 C46.46674805 26.80773926 47.53505859 27.42407227 48.63574219 28.05908203 C63.31787109 36.52954102 63.31787109 36.52954102 78 45 C78 45.66 78 46.32 78 47 C77.27748047 47.41137207 76.55496094 47.82274414 75.81054688 48.24658203 C63.17544985 55.44411756 50.54930479 62.6535437 38 70 C35.07155277 71.7096715 32.14243767 73.41819032 29.21289062 75.12597656 C26.90854332 76.47006242 24.60524635 77.81586516 22.30273438 79.16308594 C19.08655396 81.04358209 15.86481525 82.91425905 12.63964844 84.77929688 C11.38915063 85.50439173 10.14041801 86.2325402 8.89355469 86.96386719 C7.15769796 87.9813737 5.4149201 88.98704479 3.671875 89.9921875 C2.17285645 90.86399658 2.17285645 90.86399658 0.64355469 91.75341797 C-2 93 -2 93 -6 93 C-8.47924805 91.87353516 -8.47924805 91.87353516 -11.26171875 90.2890625 C-12.289021 89.70906494 -13.31632324 89.12906738 -14.37475586 88.53149414 C-15.46796143 87.90235107 -16.56116699 87.27320801 -17.6875 86.625 C-18.81873291 85.98232178 -19.94996582 85.33964355 -21.11547852 84.67749023 C-28.58833327 80.42027586 -36.0177333 76.09163738 -43.4140625 71.703125 C-50.42772386 67.55185622 -57.50271073 63.50540864 -64.56616211 59.43969727 C-66.6607883 58.23367105 -68.75415872 57.02546087 -70.84619141 55.81494141 C-73.04461364 54.549802 -75.25066053 53.29785932 -77.46240234 52.05615234 C-78.56148926 51.43305176 -79.66057617 50.80995117 -80.79296875 50.16796875 C-81.79223389 49.60746826 -82.79149902 49.04696777 -83.82104492 48.46948242 C-84.5401001 47.98455322 -85.25915527 47.49962402 -86 47 C-86 46.34 -86 45.68 -86 45 C-84.99755249 44.4423999 -84.99755249 44.4423999 -83.97485352 43.87353516 C-67.20776485 34.54422869 -67.20776485 34.54422869 -50.61669922 24.9074707 C-42.92939736 20.348507 -35.17970214 15.8982044 -27.43383789 11.43969727 C-26.38703857 10.83697998 -25.34023926 10.2342627 -24.26171875 9.61328125 C-23.22837402 9.02369629 -22.1950293 8.43411133 -21.13037109 7.82666016 C-18.9807055 6.57226943 -16.85410029 5.27776827 -14.74853516 3.95068359 C-13.70358887 3.3005127 -12.65864258 2.6503418 -11.58203125 1.98046875 C-10.65237549 1.38516357 -9.72271973 0.7898584 -8.76489258 0.17651367 C-5.28606118 -1.30379436 -3.60431088 -1.04348498 0 0 Z " fill="#D7548D" transform="translate(453,1)"/>
<path d="M0 0 C0 31.68 0 63.36 0 96 C-9.24 101.28 -18.48 106.56 -28 112 C-44.44417496 121.44947083 -44.44417496 121.44947083 -60.8203125 131.015625 C-61.92084961 131.66321777 -63.02138672 132.31081055 -64.15527344 132.97802734 C-66.25227984 134.21352475 -68.34681675 135.45322632 -70.43847656 136.69775391 C-71.37401367 137.24866699 -72.30955078 137.79958008 -73.2734375 138.3671875 C-74.09247559 138.85300293 -74.91151367 139.33881836 -75.75537109 139.83935547 C-77.87013814 140.9328515 -79.69637202 141.47050465 -82 142 C-82.55830459 129.85771908 -82.98354296 117.71852495 -83.24349213 105.56598473 C-83.36833544 99.9208641 -83.53721988 94.28456806 -83.81054688 88.64453125 C-85.58442458 51.0684604 -85.58442458 51.0684604 -79.77435303 43.65951538 C-74.25031141 38.58489 -67.99375262 36.05529517 -60.88342285 33.91357422 C-57.10380249 32.71605173 -54.22033485 31.00515525 -50.8828125 28.87890625 C-48.96388622 27.77283952 -47.0446251 26.66735346 -45.125 25.5625 C-42.96744666 24.31901259 -40.80989462 23.07552294 -38.65234375 21.83203125 C-36.43489986 20.55468051 -34.21745183 19.27733696 -32 18 C-27.8036869 15.58216338 -23.60779716 13.16359338 -19.41229248 10.74435425 C-17.72901778 9.77393527 -16.04542113 8.80407481 -14.36181641 7.83422852 C-13.33878418 7.24440186 -12.31575195 6.6545752 -11.26171875 6.046875 C-10.36412842 5.52963867 -9.46653809 5.01240234 -8.54174805 4.47949219 C-6.76064511 3.44275376 -4.99217364 2.38415059 -3.23364258 1.30957031 C-1 0 -1 0 0 0 Z " fill="#0665D4" transform="translate(537,58)"/>
<path d="M0 0 C15.56754333 8.49138727 31.11809183 17.02678315 46.36621094 26.08300781 C54.31719879 30.80113403 62.33984914 35.39561728 70.35717773 39.99975586 C71.43298096 40.61858643 72.50878418 41.23741699 73.6171875 41.875 C74.58253418 42.42929688 75.54788086 42.98359375 76.54248047 43.5546875 C78.39689593 44.64530339 80.20996997 45.80664665 82 47 C82.28603461 50.05018899 82.37792773 52.89638302 82.34057617 55.94775391 C82.34123329 57.33807579 82.34123329 57.33807579 82.34190369 58.75648499 C82.33980825 61.83005606 82.31644162 64.90308634 82.29296875 67.9765625 C82.28737548 70.10362449 82.28310412 72.23069034 82.28010559 74.35775757 C82.26863565 79.96385313 82.23914995 85.56971655 82.20599365 91.17572021 C82.17533906 96.89315653 82.16161012 102.61063025 82.14648438 108.328125 C82.11428234 119.55218548 82.06306005 130.77607346 82 142 C78.06804528 140.7282356 74.63344163 139.38267032 71.078125 137.26953125 C70.14887207 136.72176025 69.21961914 136.17398926 68.26220703 135.60961914 C67.26817871 135.01656982 66.27415039 134.42352051 65.25 133.8125 C63.08632451 132.53580222 60.92224834 131.25978329 58.7578125 129.984375 C57.64180664 129.32501953 56.52580078 128.66566406 55.37597656 127.98632812 C49.97873794 124.81074717 44.55241098 121.68614468 39.125 118.5625 C37.21090806 117.45968652 35.29684675 116.35681986 33.3828125 115.25390625 C30.94648438 113.85011719 28.51015625 112.44632812 26 111 C17.42 106.05 8.84 101.1 0 96 C0 64.32 0 32.64 0 0 Z " fill="#076ADB" transform="translate(361,58)"/>
<path d="M0 0 C2.4720437 1.86829456 4.77158223 3.84818409 7 6 C7.33 3.36 7.66 0.72 8 -2 C13.61 -2 19.22 -2 25 -2 C25 20.77 25 43.54 25 67 C19.39 67 13.78 67 8 67 C7.505 62.545 7.505 62.545 7 58 C6.319375 58.7425 5.63875 59.485 4.9375 60.25 C-0.82984761 66.01734761 -7.09358815 68.1286484 -15.125 68.3125 C-22.74446525 68.25257162 -28.3176008 66.25965406 -34.75 62.3125 C-43.89656216 52.91186667 -47.42203765 42.23503461 -47.27734375 29.29296875 C-46.3712286 18.53444658 -42.33319523 10.18905482 -34.6875 2.75 C-24.23036022 -4.05930032 -11.40936636 -6.11216055 0 0 Z M-25.375 18.375 C-29.42926316 24.92419433 -30.02596735 31.72093162 -28.5703125 39.2109375 C-26.57164721 45.65108121 -22.25167696 48.97868729 -16.6875 52.4375 C-11.00310394 53.62725731 -5.7583002 52.91171122 -0.625 50.25 C4.49926357 45.85777408 7.24174279 41.8124671 8 35 C8 28.32861458 7.24278027 22.26583321 2.3515625 17.33984375 C-2.47932936 13.0287314 -6.10029133 11.63424647 -12.5859375 11.71875 C-17.82411447 12.32902305 -21.6957482 14.6957482 -25.375 18.375 Z " fill="#000000" transform="translate(750,72)"/>
<path d="M0 0 C6.23409997 4.18670789 10.47827197 8.66904148 14.0390625 15.26953125 C14.41933594 15.9553125 14.79960938 16.64109375 15.19140625 17.34765625 C16.0390625 19.26953125 16.0390625 19.26953125 16.0390625 22.26953125 C12.78974323 22.44408146 9.54162802 22.55044878 6.2890625 22.64453125 C4.90847656 22.71994141 4.90847656 22.71994141 3.5 22.796875 C0.88647433 22.85369078 -1.4069988 22.83555772 -3.9609375 22.26953125 C-6.4296875 19.38671875 -6.4296875 19.38671875 -7.9609375 16.26953125 C-13.87947091 11.42709482 -19.85991779 9.98483092 -27.3359375 10.26953125 C-34.26494307 11.11640971 -40.20612013 13.82277618 -44.625 19.3515625 C-50.08789554 28.47236177 -50.89547249 37.90595096 -48.9609375 48.26953125 C-46.18451271 56.45443152 -42.23663039 60.78962938 -34.8359375 65.08203125 C-28.03702308 67.72019095 -19.36960833 67.28428288 -12.71484375 64.39453125 C-8.89140447 61.94208022 -5.98157519 58.31080663 -3.9609375 54.26953125 C2.9690625 54.26953125 9.8990625 54.26953125 17.0390625 54.26953125 C13.63776585 64.62130368 7.7236488 72.87488399 -1.921875 78.3125 C-14.75125614 84.33395284 -28.59993968 85.08769159 -41.9609375 80.26953125 C-54.70870901 74.34980443 -61.76201893 66.25027062 -66.9609375 53.26953125 C-70.72135205 41.40180093 -69.68305521 27.33229216 -63.9609375 16.26953125 C-57.2746212 5.71397607 -48.16942397 -1.80569801 -36.06152344 -5.2746582 C-23.97825092 -7.89663284 -10.59501023 -6.19207062 0 0 Z " fill="#000000" transform="translate(625.9609375,56.73046875)"/>
<path d="M0 0 C6.91561502 5.31670403 10.68224209 13.26412461 12.765625 21.59765625 C12.765625 26.21765625 12.765625 30.83765625 12.765625 35.59765625 C-4.064375 35.59765625 -20.894375 35.59765625 -38.234375 35.59765625 C-35.17625807 45.15541114 -35.17625807 45.15541114 -28.234375 49.59765625 C-22.16174819 51.17122013 -17.76598224 50.85154286 -12.234375 47.59765625 C-11.70972656 46.74042969 -11.18507812 45.88320312 -10.64453125 45 C-7.90831023 42.27264841 -7.37097115 42.23427579 -3.6875 42.109375 C-1.95245144 42.14248661 -0.21774329 42.20194433 1.515625 42.28515625 C2.84787109 42.31899414 2.84787109 42.31899414 4.20703125 42.35351562 C6.39495312 42.41233073 8.57942171 42.49444357 10.765625 42.59765625 C8.81391695 50.87208516 4.33714547 56.6678789 -2.91015625 61.3125 C-12.57087283 66.25019959 -22.92257951 67.25377503 -33.546875 64.53515625 C-42.46071239 61.388235 -49.04835857 54.98310584 -53.234375 46.59765625 C-57.55752846 35.7078947 -57.4465993 24.75388888 -53.6875 13.71484375 C-49.7353685 5.23688425 -42.83519799 -0.86663258 -34.234375 -4.40234375 C-23.41153085 -8.10616153 -9.45292626 -5.93286805 0 0 Z M-35.046875 14.41015625 C-37.70209712 17.79798994 -37.70209712 17.79798994 -38.234375 23.59765625 C-27.344375 23.59765625 -16.454375 23.59765625 -5.234375 23.59765625 C-6.31749275 17.09894977 -7.60888204 14.883871 -12.234375 10.59765625 C-19.95247993 5.79991535 -29.01457614 8.37785739 -35.046875 14.41015625 Z " fill="#000000" transform="translate(196.234375,74.40234375)"/>
<path d="M0 0 C16.5 0 33 0 50 0 C50 4.62 50 9.24 50 14 C39.11 14 28.22 14 17 14 C17 21.26 17 28.52 17 36 C26.9 36 36.8 36 47 36 C47 40.62 47 45.24 47 50 C37.1 50 27.2 50 17 50 C17 57.59 17 65.18 17 73 C27.89 73 38.78 73 50 73 C50 77.62 50 82.24 50 87 C33.5 87 17 87 0 87 C0 58.29 0 29.58 0 0 Z " fill="#000000" transform="translate(4,52)"/>
<path d="M0 0 C6.55181779 4.45793788 10.47474429 9.79906392 12.09326172 17.57177734 C13.11318532 22.95057105 13.2572007 28.14072925 13.1953125 33.6015625 C13.1924826 34.564039 13.18965271 35.5265155 13.18673706 36.51815796 C13.17565578 39.55390535 13.1505746 42.5893437 13.125 45.625 C13.11495459 47.69921445 13.10583149 49.77343359 13.09765625 51.84765625 C13.07575609 56.89855426 13.04131123 61.94922497 13 67 C7.06 67 1.12 67 -5 67 C-5.01458252 65.69853027 -5.02916504 64.39706055 -5.04418945 63.05615234 C-5.10228934 58.21408008 -5.17952191 53.37246715 -5.26245117 48.53076172 C-5.29564549 46.43773876 -5.32369445 44.34462747 -5.34643555 42.25146484 C-5.38008231 39.23757388 -5.43240393 36.22448837 -5.48828125 33.2109375 C-5.49467117 32.27945892 -5.5010611 31.34798035 -5.50764465 30.38827515 C-5.64359414 24.34113397 -6.52542571 19.99011061 -10.5 15.1875 C-14.75989461 11.81508343 -20.8857186 12.4878402 -26 13 C-30.63505457 15.06922079 -32.49386493 17.23171865 -34.3866272 21.90335083 C-35.55680447 25.90328561 -35.48246531 29.94924877 -35.51171875 34.08984375 C-35.52966995 35.03436905 -35.54762115 35.97889435 -35.56611633 36.95204163 C-35.61998156 39.94715 -35.65403858 42.94210119 -35.6875 45.9375 C-35.72069407 47.9772353 -35.75518565 50.01694992 -35.79101562 52.05664062 C-35.87569435 57.03764657 -35.94261872 62.01860783 -36 67 C-41.61 67 -47.22 67 -53 67 C-53 44.23 -53 21.46 -53 -2 C-47.39 -2 -41.78 -2 -36 -2 C-35.67 0.31 -35.34 2.62 -35 5 C-34.154375 4.236875 -33.30875 3.47375 -32.4375 2.6875 C-23.55672588 -4.53197457 -10.09912381 -6.03677962 0 0 Z " fill="#000000" transform="translate(275,72)"/>
<path d="M0 0 C5.94 0 11.88 0 18 0 C20.66613738 6.51328238 23.08813955 13.02582627 25.234375 19.7265625 C25.51726379 20.60025482 25.80015259 21.47394714 26.09161377 22.37411499 C26.98097692 25.1233777 27.86557267 27.874146 28.75 30.625 C29.35775607 32.50661279 29.96582628 34.38812414 30.57421875 36.26953125 C32.05310678 40.84519168 33.52772591 45.42220739 35 50 C36.78064174 47.32903739 37.62597763 45.45225356 38.58813477 42.45263672 C38.88506729 41.53513641 39.18199982 40.61763611 39.4879303 39.67233276 C39.80257736 38.68475983 40.11722443 37.69718689 40.44140625 36.6796875 C40.76914536 35.66528595 41.09688446 34.6508844 41.43455505 33.60574341 C42.48160135 30.36356019 43.52253484 27.1194609 44.5625 23.875 C45.60658778 20.62358359 46.6520191 17.37262394 47.70115662 14.12283325 C48.35419926 12.09947474 49.00422217 10.07513878 49.65101624 8.04977417 C49.9447966 7.13857819 50.23857697 6.2273822 50.54125977 5.28857422 C50.79948013 4.48265839 51.0577005 3.67674255 51.32374573 2.84640503 C52 1 52 1 53 0 C54.34267413 -0.08631874 55.68974322 -0.10706473 57.03515625 -0.09765625 C57.84404297 -0.09443359 58.65292969 -0.09121094 59.48632812 -0.08789062 C60.33646484 -0.07951172 61.18660156 -0.07113281 62.0625 -0.0625 C62.91650391 -0.05798828 63.77050781 -0.05347656 64.65039062 -0.04882812 C66.76695663 -0.03700373 68.88348685 -0.01906769 71 0 C70.23224272 5.0465525 68.40342921 9.67794722 66.6484375 14.4453125 C66.31131744 15.36980194 65.97419739 16.29429138 65.62686157 17.24679565 C64.54629472 20.20744746 63.46070354 23.16622854 62.375 26.125 C61.66764267 28.06107881 60.96060838 29.99727568 60.25390625 31.93359375 C58.51657138 36.69092921 56.77229012 41.44568478 55.02624512 46.1998291 C53.99670604 49.00898776 52.97287494 51.82017366 51.95019531 54.63183594 C51.31319107 56.37696774 50.67614865 58.1220856 50.0390625 59.8671875 C49.74591156 60.67672882 49.45276062 61.48627014 49.15072632 62.32034302 C47.11315814 67.88684186 47.11315814 67.88684186 46 69 C44.43827255 69.08685603 42.87270656 69.10702219 41.30859375 69.09765625 C40.36435547 69.09443359 39.42011719 69.09121094 38.44726562 69.08789062 C37.45404297 69.07951172 36.46082031 69.07113281 35.4375 69.0625 C34.44041016 69.05798828 33.44332031 69.05347656 32.41601562 69.04882812 C29.94394862 69.03700005 27.47201335 69.01967958 25 69 C21.61416399 61.72672811 18.78764319 54.28296184 16.015625 46.7578125 C15.55063666 45.49986412 15.0855262 44.24196088 14.62030029 42.98410034 C13.65349782 40.36775919 12.68902349 37.75057414 11.72607422 35.1328125 C10.49179753 31.77841901 9.2502983 28.42674885 8.0069313 25.07571602 C7.0479073 22.48791397 6.09334496 19.8984834 5.14006805 17.30855942 C4.46265824 15.47117023 3.78095021 13.63536756 3.09918213 11.79959106 C2.6916571 10.68768402 2.28413208 9.57577698 1.86425781 8.43017578 C1.50325989 7.45138458 1.14226196 6.47259338 0.77032471 5.46414185 C0 3 0 3 0 0 Z " fill="#000000" transform="translate(63,70)"/>
<path d="M0 0 C0 4.95 0 9.9 0 15 C-1.44375 15.226875 -2.8875 15.45375 -4.375 15.6875 C-8.11418278 16.42176472 -8.11418278 16.42176472 -10.5 19.25 C-10.665 20.1575 -10.83 21.065 -11 22 C-11.309375 23.6396875 -11.309375 23.6396875 -11.625 25.3125 C-11.74875 26.199375 -11.8725 27.08625 -12 28 C-8.04 28 -4.08 28 0 28 C0 32.62 0 37.24 0 42 C-3.96 42 -7.92 42 -12 42 C-12 60.15 -12 78.3 -12 97 C-17.94 97 -23.88 97 -30 97 C-30 78.85 -30 60.7 -30 42 C-32.31 42 -34.62 42 -37 42 C-37 37.38 -37 32.76 -37 28 C-34.69 28 -32.38 28 -30 28 C-29.97421875 27.2265625 -29.9484375 26.453125 -29.921875 25.65625 C-29.45823359 17.14210772 -28.268034 11.42003558 -22.3125 5.1875 C-15.03275469 0.38012102 -8.60786883 -0.36371277 0 0 Z " fill="#000000" transform="translate(824,42)"/>
<path d="M0 0 C5.94 0 11.88 0 18 0 C18 5.61 18 11.22 18 17 C23.28 17 28.56 17 34 17 C34 21.62 34 26.24 34 31 C28.72 31 23.44 31 18 31 C18.495 50.305 18.495 50.305 19 70 C23.95 70.33 28.9 70.66 34 71 C34 75.95 34 80.9 34 86 C31.16607074 86.08174796 28.33455181 86.14084985 25.5 86.1875 C24.70851563 86.21263672 23.91703125 86.23777344 23.1015625 86.26367188 C16.69369495 86.34245713 11.22892518 85.46221129 5.9765625 81.45703125 C5.53054688 80.91433594 5.08453125 80.37164062 4.625 79.8125 C4.16351562 79.28269531 3.70203125 78.75289063 3.2265625 78.20703125 C-0.08479126 72.24870362 -0.28456554 65.76577438 -0.1953125 59.125 C-0.1924826 58.31506592 -0.18965271 57.50513184 -0.18673706 56.6706543 C-0.17564715 54.11361166 -0.15056452 51.55693465 -0.125 49 C-0.1149557 47.25391135 -0.1058324 45.50781715 -0.09765625 43.76171875 C-0.07574466 39.50767415 -0.04129382 35.25389881 0 31 C-2.64 31 -5.28 31 -8 31 C-8 26.38 -8 21.76 -8 17 C-5.36 17 -2.72 17 0 17 C0 11.39 0 5.78 0 0 Z " fill="#000000" transform="translate(838,53)"/>
<path d="M0 0 C5.94 0 11.88 0 18 0 C18 5.61 18 11.22 18 17 C23.28 17 28.56 17 34 17 C34 21.62 34 26.24 34 31 C28.72 31 23.44 31 18 31 C18.495 50.305 18.495 50.305 19 70 C23.95 70.33 28.9 70.66 34 71 C34 75.95 34 80.9 34 86 C31.16607074 86.08174796 28.33455181 86.14084985 25.5 86.1875 C24.70851563 86.21263672 23.91703125 86.23777344 23.1015625 86.26367188 C16.69369495 86.34245713 11.22892518 85.46221129 5.9765625 81.45703125 C5.53054688 80.91433594 5.08453125 80.37164062 4.625 79.8125 C4.16351563 79.28269531 3.70203125 78.75289063 3.2265625 78.20703125 C-0.08479126 72.24870362 -0.28456554 65.76577438 -0.1953125 59.125 C-0.1924826 58.31506592 -0.18965271 57.50513184 -0.18673706 56.6706543 C-0.17564715 54.11361166 -0.15056452 51.55693465 -0.125 49 C-0.1149557 47.25391135 -0.1058324 45.50781715 -0.09765625 43.76171875 C-0.07574466 39.50767415 -0.04129382 35.25389881 0 31 C-2.64 31 -5.28 31 -8 31 C-8 26.38 -8 21.76 -8 17 C-5.36 17 -2.72 17 0 17 C0 11.39 0 5.78 0 0 Z " fill="#000000" transform="translate(307,53)"/>
<path d="M0 0 C0 5.94 0 11.88 0 18 C-4.83398438 18.5859375 -4.83398438 18.5859375 -9.66796875 19.171875 C-13.48430123 20.1203656 -15.28752353 21.16707609 -18 24 C-20.21676173 29.10541699 -20.33923276 33.86853874 -20.4140625 39.3359375 C-20.43342865 40.21528961 -20.4527948 41.09464172 -20.4727478 42.00064087 C-20.53222815 44.79199718 -20.5788021 47.58339543 -20.625 50.375 C-20.66320885 52.27475694 -20.70226226 54.1744971 -20.7421875 56.07421875 C-20.83790357 60.7160085 -20.9220504 65.35787929 -21 70 C-26.61 70 -32.22 70 -38 70 C-38 47.23 -38 24.46 -38 1 C-32.39 1 -26.78 1 -21 1 C-20.67 3.64 -20.34 6.28 -20 9 C-19.57589844 8.60167969 -19.15179687 8.20335938 -18.71484375 7.79296875 C-12.63964725 2.30526378 -8.47524069 0 0 0 Z " fill="#000000" transform="translate(696,69)"/>
<path d="M0 0 C2.5138022 2.29998988 4.12931764 4.68305911 5.828125 7.62890625 C6.37355957 8.56935791 6.91899414 9.50980957 7.48095703 10.47875977 C8.3566333 12.00521118 8.3566333 12.00521118 9.25 13.5625 C10.16241455 15.14019165 10.16241455 15.14019165 11.09326172 16.74975586 C12.72733739 19.57719437 14.35725937 22.40697669 15.98547363 25.23779297 C17.69223583 28.20239639 19.40498469 31.16353666 21.1171875 34.125 C23.68762963 38.57264451 26.25574614 43.02162053 28.8203125 47.47265625 C29.37364258 48.43059082 29.92697266 49.38852539 30.49707031 50.37548828 C31.42560892 51.99696165 32.3438429 53.62444567 33.24511719 55.26123047 C34.9948408 58.73171682 34.9948408 58.73171682 38 61 C38 62.98 38 64.96 38 67 C35.3123051 63.63830112 33.25374737 60.00936288 31.1875 56.25 C27.27788063 49.21697507 23.25332309 42.25626516 19.1875 35.3125 C14.48150545 27.26066202 9.78044872 19.20619602 5.125 11.125 C4.60703857 10.23337158 4.08907715 9.34174316 3.55541992 8.4230957 C3.08595947 7.60542725 2.61649902 6.78775879 2.1328125 5.9453125 C1.71918457 5.22875488 1.30555664 4.51219727 0.87939453 3.77392578 C0 2 0 2 0 0 Z " fill="#05439A" transform="translate(404,132)"/>
<path d="M0 0 C-1.875 3.875 -1.875 3.875 -3 5 C-3.09522418 7.86091818 -3.12553326 10.69763621 -3.11352539 13.55883789 C-3.11367142 14.45631241 -3.11381744 15.35378693 -3.1139679 16.27845764 C-3.11326842 19.25988134 -3.10547441 22.2412434 -3.09765625 25.22265625 C-3.09579219 27.28388942 -3.09436823 29.34512304 -3.09336853 31.40635681 C-3.08954237 36.8430401 -3.07971126 42.27969686 -3.06866455 47.71636963 C-3.05845253 53.25947714 -3.05387136 58.80258892 -3.04882812 64.34570312 C-3.03808908 75.23048043 -3.02101149 86.11523802 -3 97 C-3.66 97 -4.32 97 -5 97 C-5.06939732 84.64811585 -5.12275894 72.29627779 -5.15543652 59.94423866 C-5.17111718 54.20917519 -5.1923992 48.47424472 -5.22631836 42.73925781 C-5.25882625 37.20850689 -5.27683491 31.67788419 -5.28463173 26.14704514 C-5.29019068 24.0330338 -5.30104538 21.91902978 -5.31719017 19.80507278 C-5.33885052 16.85247679 -5.34197171 13.90041609 -5.34057617 10.94775391 C-5.351362 10.0666243 -5.36214783 9.18549469 -5.3732605 8.27766418 C-5.36076355 5.84707642 -5.36076355 5.84707642 -5 2 C-2 0 -2 0 0 0 Z " fill="#96BCE7" transform="translate(460,103)"/>
<path d="M0 0 C0.33 0.66 0.66 1.32 1 2 C0.09130859 4.11962891 0.09130859 4.11962891 -1.3515625 6.7265625 C-1.87363281 7.67660156 -2.39570313 8.62664062 -2.93359375 9.60546875 C-3.49175781 10.60191406 -4.04992187 11.59835938 -4.625 12.625 C-5.15996094 13.59824219 -5.69492187 14.57148438 -6.24609375 15.57421875 C-9.33638775 21.16080864 -12.56259939 26.62027637 -16 32 C-15.01 32.33 -14.02 32.66 -13 33 C-14.98 33.66 -16.96 34.32 -19 35 C-17.66788331 30.57517443 -15.91794519 26.82109523 -13.59375 22.83203125 C-12.93246094 21.69185547 -12.27117187 20.55167969 -11.58984375 19.37695312 C-10.89326652 18.18878018 -10.19665156 17.00062936 -9.5 15.8125 C-8.80290045 14.6129119 -8.10628142 13.41304442 -7.41015625 12.21289062 C-2.3824986 3.57374791 -2.3824986 3.57374791 0 0 Z " fill="#1995F4" transform="translate(476,164)"/>
<path d="M0 0 C0.66 0 1.32 0 2 0 C3.50519387 2.62214328 5.00431319 5.24744208 6.5 7.875 C6.92925781 8.62136719 7.35851562 9.36773437 7.80078125 10.13671875 C8.20683594 10.85214844 8.61289062 11.56757813 9.03125 12.3046875 C9.40830078 12.96452637 9.78535156 13.62436523 10.17382812 14.30419922 C11 16 11 16 11 18 C8.525 17.01 8.525 17.01 6 16 C6.66 15.67 7.32 15.34 8 15 C7.4225 14.00097656 6.845 13.00195312 6.25 11.97265625 C5.49988741 10.66933563 4.74989352 9.36594668 4 8.0625 C3.6184375 7.40314453 3.236875 6.74378906 2.84375 6.06445312 C0 1.11328125 0 1.11328125 0 0 Z " fill="#209CF2" transform="translate(430,181)"/>
<path d="M0 0 C-1.875 3.875 -1.875 3.875 -3 5 C-3.23481693 7.18292774 -3.41363323 9.37203174 -3.5625 11.5625 C-3.64628906 12.76003906 -3.73007812 13.95757812 -3.81640625 15.19140625 C-3.87699219 16.11824219 -3.93757813 17.04507813 -4 18 C-4.33 18 -4.66 18 -5 18 C-5.08074203 15.37438891 -5.1403623 12.75124324 -5.1875 10.125 C-5.21263672 9.37863281 -5.23777344 8.63226563 -5.26367188 7.86328125 C-5.29296875 5.6953125 -5.29296875 5.6953125 -5 2 C-2 0 -2 0 0 0 Z " fill="#70AFF8" transform="translate(460,103)"/>
</svg>
